<svg width="61" height="14" viewBox="0 0 61 14" fill="none" xmlns="http://www.w3.org/2000/svg">
<path d="M0.888821 0.789795L9.1309 0.789796L9.1309 2.28962L5.88567 2.28962L5.88567 10.7444L4.1069 10.7444L4.1069 2.28962L0.875244 2.28962L0.888821 0.789795ZM8.77786 3.53726L10.2986 3.53726L10.2986 4.9309L10.3258 4.9309C10.3801 4.73181 10.4752 4.54599 10.6109 4.36017C10.7467 4.17435 10.9097 4.0018 11.1133 3.8558C11.3034 3.69653 11.5207 3.57708 11.7651 3.48417C11.9959 3.39126 12.2403 3.33817 12.4848 3.33817C12.6749 3.33817 12.8106 3.35144 12.8785 3.35144C12.9464 3.36471 13.0279 3.37799 13.0958 3.37799L13.0958 4.90436C12.9872 4.87781 12.865 4.86453 12.7427 4.85126C12.6205 4.83799 12.5119 4.82472 12.3897 4.82472C12.1181 4.82472 11.8602 4.87781 11.6157 4.98399C11.3713 5.09017 11.1677 5.24944 10.9776 5.44854C10.801 5.6609 10.6517 5.91309 10.5431 6.21836C10.4344 6.52363 10.3801 6.882 10.3801 7.28018L10.3801 10.7046L8.7507 10.7046L8.77786 3.53726ZM20.5639 10.7444L18.9616 10.7444L18.9616 9.73565L18.9345 9.73565C18.7308 10.1073 18.4321 10.386 18.0383 10.6116C17.6445 10.8373 17.2372 10.9435 16.8298 10.9435C15.8658 10.9435 15.1597 10.7178 14.7252 10.24C14.2907 9.77546 14.0734 9.05873 14.0734 8.11637L14.0734 3.53726L15.7028 3.53726L15.7028 7.95709C15.7028 8.59419 15.825 9.04546 16.083 9.29764C16.3274 9.5631 16.6805 9.69582 17.1286 9.69582C17.468 9.69582 17.7532 9.64274 17.984 9.53655C18.2148 9.43037 18.4049 9.29764 18.5407 9.1251C18.6901 8.95255 18.7851 8.74018 18.853 8.50128C18.9209 8.26236 18.9481 7.99691 18.9481 7.71818L18.9481 3.53726L20.5775 3.53726L20.5775 10.7444L20.5639 10.7444ZM23.3339 8.43491C23.3882 8.89946 23.5647 9.21801 23.877 9.4171C24.1893 9.60292 24.5695 9.69582 25.004 9.69582C25.1534 9.69582 25.3299 9.68255 25.52 9.65601C25.7101 9.62946 25.9002 9.58964 26.0631 9.52328C26.2397 9.45692 26.3754 9.36401 26.4841 9.23128C26.5927 9.09855 26.647 8.93928 26.6334 8.74019C26.6199 8.5411 26.552 8.36855 26.4026 8.23582C26.2532 8.10309 26.0767 8.01018 25.8595 7.91727C25.6422 7.83764 25.3842 7.77127 25.0991 7.71818C24.8139 7.66509 24.5288 7.59873 24.2301 7.53236C23.9313 7.466 23.6326 7.38637 23.3475 7.29346C23.0623 7.20055 22.8179 7.08109 22.5871 6.90854C22.3698 6.74927 22.1797 6.55018 22.0575 6.298C21.9217 6.04582 21.8538 5.75381 21.8538 5.38217C21.8538 4.98399 21.9489 4.66544 22.1526 4.39999C22.3427 4.13453 22.6007 3.92217 22.8994 3.7629C23.1981 3.60362 23.5376 3.48417 23.9042 3.4178C24.2708 3.35144 24.6238 3.32489 24.9497 3.32489C25.3299 3.32489 25.6965 3.36472 26.036 3.44435C26.3754 3.52399 26.7013 3.64344 26.9729 3.82926C27.258 4.00181 27.4889 4.24072 27.6654 4.51944C27.8555 4.79817 27.9641 5.14327 28.0184 5.54145L26.3211 5.54145C26.2397 5.15654 26.0631 4.90436 25.7916 4.77163C25.5064 4.6389 25.1941 4.57254 24.8275 4.57254C24.7189 4.57254 24.5695 4.58581 24.4202 4.59908C24.2572 4.62563 24.1214 4.65217 23.9721 4.70527C23.8363 4.75836 23.7141 4.83799 23.619 4.9309C23.524 5.02381 23.4697 5.15654 23.4697 5.31581C23.4697 5.5149 23.5376 5.6609 23.6733 5.78036C23.8091 5.89981 23.9856 5.99272 24.2165 6.08563C24.4337 6.16527 24.6917 6.23163 24.9769 6.28472C25.262 6.33782 25.5607 6.40418 25.8595 6.47054C26.1582 6.53691 26.4433 6.61654 26.7285 6.70945C27.0136 6.80236 27.2716 6.92182 27.4889 7.09437C27.7061 7.25364 27.8962 7.45273 28.032 7.69164C28.1678 7.93055 28.2357 8.23582 28.2357 8.58091C28.2357 9.00564 28.1406 9.36401 27.937 9.66928C27.7333 9.96128 27.4753 10.2135 27.163 10.3993C26.8507 10.5851 26.4841 10.7178 26.1039 10.8107C25.7101 10.8904 25.3299 10.9435 24.9497 10.9435C24.488 10.9435 24.0535 10.8904 23.6598 10.7842C23.266 10.678 22.913 10.5187 22.6278 10.3196C22.3427 10.1073 22.1118 9.8551 21.9489 9.53655C21.7859 9.23128 21.6909 8.85964 21.6773 8.42164L23.3203 8.42164L23.3203 8.43491L23.3339 8.43491ZM28.6973 3.53726L29.933 3.53726L29.933 1.36053L31.5624 1.36053L31.5624 3.52399L33.0289 3.52399L33.0289 4.70527L31.5624 4.70527L31.5624 8.55437C31.5624 8.72692 31.576 8.85964 31.5895 8.99237C31.6031 9.11183 31.6439 9.21801 31.6846 9.29764C31.7389 9.37728 31.8204 9.44365 31.9154 9.48347C32.0241 9.52328 32.1598 9.54983 32.3499 9.54983C32.4586 9.54983 32.5808 9.54983 32.6894 9.53656C32.798 9.52328 32.9202 9.51001 33.0288 9.48347L33.0288 10.7178C32.8523 10.7444 32.6758 10.7576 32.4993 10.7709C32.3228 10.7975 32.1598 10.7975 31.9697 10.7975C31.5352 10.7975 31.1958 10.7577 30.9378 10.678C30.6798 10.5984 30.4761 10.4789 30.3268 10.3329C30.1774 10.1736 30.0823 9.98783 30.028 9.76219C29.9737 9.53655 29.9466 9.25782 29.933 8.96582L29.933 4.71854L28.6973 4.71854L28.6973 3.51072L28.6973 3.53726ZM34.1694 3.53726L35.7038 3.53726L35.7038 4.51944L35.7309 4.51944C35.9618 4.09472 36.2741 3.80272 36.6814 3.6169C37.0888 3.43108 37.5233 3.33817 38.0121 3.33817C38.596 3.33817 39.0984 3.43108 39.5329 3.64344C39.9674 3.84254 40.3204 4.10799 40.6056 4.46635C40.8907 4.81145 41.108 5.2229 41.2438 5.68745C41.3796 6.152 41.461 6.65636 41.461 7.174C41.461 7.66509 41.3931 8.12964 41.2709 8.58091C41.1351 9.03219 40.945 9.44365 40.6871 9.78874C40.4291 10.1338 40.1032 10.4126 39.6958 10.6249C39.2885 10.8373 38.8268 10.9435 38.2837 10.9435C38.0529 10.9435 37.8084 10.9169 37.5776 10.8771C37.3468 10.8373 37.1159 10.7709 36.8987 10.678C36.6814 10.5851 36.4778 10.4656 36.3012 10.3196C36.1111 10.1736 35.9618 10.0011 35.8396 9.81528L35.8124 9.81528L35.8124 13.4122L34.183 13.4122L34.183 3.53726L34.1694 3.53726ZM39.8588 7.14746C39.8588 6.82891 39.818 6.51036 39.723 6.20509C39.6415 5.89981 39.5057 5.63436 39.3292 5.39545C39.1527 5.15654 38.9354 4.97072 38.691 4.82472C38.433 4.67872 38.1343 4.61236 37.8084 4.61236C37.1295 4.61236 36.6135 4.83799 36.2605 5.30254C35.9211 5.76709 35.7445 6.39091 35.7445 7.16073C35.7445 7.53237 35.7853 7.86418 35.8803 8.16946C35.9754 8.47473 36.0976 8.74019 36.2877 8.96582C36.4642 9.19146 36.6814 9.36401 36.9394 9.49673C37.1974 9.62946 37.4826 9.69583 37.822 9.69583C38.2022 9.69583 38.5009 9.61619 38.7589 9.47019C39.0169 9.32419 39.2206 9.1251 39.3971 8.89946C39.5601 8.66055 39.6823 8.3951 39.7501 8.08982C39.818 7.77128 39.8588 7.466 39.8588 7.14746ZM42.7238 0.789799L44.3532 0.789799L44.3532 2.28962L42.7238 2.28962L42.7238 0.789799ZM42.7238 3.53726L44.3532 3.53726L44.3532 10.7444L42.7238 10.7444L42.7238 3.53726ZM45.8061 0.789799L47.4355 0.789799L47.4355 10.7444L45.8061 10.7444L45.8061 0.789799ZM52.4052 10.9435C51.8213 10.9435 51.2918 10.8506 50.8301 10.6515C50.3684 10.4524 49.9883 10.2002 49.6624 9.86838C49.3501 9.53656 49.1057 9.1251 48.9427 8.66055C48.7798 8.19601 48.6847 7.67837 48.6847 7.13418C48.6847 6.59 48.7662 6.08564 48.9427 5.62109C49.1057 5.15654 49.3501 4.75836 49.6624 4.41326C49.9747 4.08145 50.3684 3.81599 50.8301 3.63017C51.2918 3.44435 51.8213 3.33817 52.4052 3.33817C52.9891 3.33817 53.5186 3.43108 53.9803 3.63017C54.442 3.81599 54.8222 4.08145 55.148 4.41327C55.4603 4.74508 55.7047 5.15654 55.8677 5.62109C56.0306 6.08564 56.1257 6.59 56.1257 7.13418C56.1257 7.69164 56.0442 8.19601 55.8677 8.66055C55.6912 9.1251 55.4603 9.52328 55.148 9.86838C54.8357 10.2002 54.442 10.4657 53.9803 10.6515C53.5186 10.8373 53.0026 10.9435 52.4052 10.9435ZM52.4052 9.68256C52.7582 9.68256 53.0841 9.60292 53.3421 9.45692C53.6137 9.31092 53.8174 9.11183 53.9939 8.87292C54.1704 8.63401 54.2926 8.35528 54.3741 8.06328C54.4555 7.758 54.4963 7.45273 54.4963 7.13418C54.4963 6.82891 54.4555 6.52364 54.3741 6.21836C54.2926 5.91309 54.1704 5.64763 53.9939 5.40872C53.8174 5.16981 53.6001 4.984 53.3421 4.838C53.0705 4.692 52.7582 4.61236 52.4052 4.61236C52.0522 4.61236 51.7263 4.69199 51.4683 4.838C51.1967 4.984 50.9931 5.18309 50.8165 5.40872C50.64 5.64763 50.5178 5.91309 50.4363 6.21836C50.3549 6.52364 50.3141 6.82891 50.3141 7.13418C50.3141 7.45273 50.3549 7.758 50.4363 8.06328C50.5178 8.36855 50.64 8.63401 50.8165 8.87292C50.9931 9.11183 51.2103 9.31092 51.4683 9.45692C51.7399 9.61619 52.0522 9.68256 52.4052 9.68256ZM56.6145 3.53726L57.8501 3.53726L57.8501 1.36053L59.4795 1.36053L59.4795 3.52399L60.946 3.52399L60.946 4.70527L59.4795 4.70527L59.4795 8.55437C59.4795 8.72692 59.4931 8.85965 59.5067 8.99237C59.5203 9.11183 59.561 9.21801 59.6017 9.29764C59.6561 9.37728 59.7375 9.44365 59.8326 9.48347C59.9412 9.52329 60.077 9.54983 60.2671 9.54983C60.3757 9.54983 60.4979 9.54983 60.6065 9.53656C60.7152 9.52328 60.8374 9.51001 60.946 9.48347L60.946 10.7178C60.7695 10.7444 60.593 10.7577 60.4164 10.7709C60.2399 10.7975 60.077 10.7975 59.8869 10.7975C59.4524 10.7975 59.1129 10.7577 58.8549 10.678C58.5969 10.5984 58.3933 10.4789 58.2439 10.3329C58.0945 10.1736 57.9995 9.98783 57.9452 9.76219C57.8909 9.53655 57.8637 9.25783 57.8501 8.96583L57.8501 4.71854L56.6145 4.71854L56.6145 3.51072L56.6145 3.53726Z" fill="white"/>
</svg>
